HIERARCHY
ROOT hip
{
  OFFSET 0 0 0
  CHANNELS 6 Xposition Yposition Zposition Zrotation Yrotation Xrotation
  JOINT abdomen
  {
    OFFSET 0 20.6881 -0.73152
    CHANNELS 3 Zrotation Xrotation Yrotation
    JOINT chest
    {
      OFFSET 0 11.7043 -0.48768
      CHANNELS 3 Zrotation Xrotation Yrotation
      JOINT neck
      {
        OFFSET 0 22.1894 -2.19456
        CHANNELS 3 Zrotation Xrotation Yrotation
        JOINT head
        {
          OFFSET -0.24384 7.07133 1.2192
          CHANNELS 3 Zrotation Xrotation Yrotation
          JOINT leftEye
          {
            OFFSET 4.14528 8.04674 8.04672
            CHANNELS 3 Zrotation Xrotation Yrotation
            End Site
            {
              OFFSET 1 0 0
            }
          }
          JOINT rightEye
          {
            OFFSET -3.6576 8.04674 8.04672
            CHANNELS 3 Zrotation Xrotation Yrotation
            End Site
            {
              OFFSET 1 0 0
            }
          }
        }
      }
      JOINT rCollar
      {
        OFFSET -2.68224 19.2634 -4.8768
        CHANNELS 3 Zrotation Xrotation Yrotation
        JOINT rShldr
        {
          OFFSET -8.77824 -1.95073 1.46304
          CHANNELS 3 Zrotation Xrotation Yrotation
          JOINT rForeArm
          {
            OFFSET -28.1742 -1.7115 0.48768
            CHANNELS 3 Zrotation Xrotation Yrotation
            JOINT rHand
            {
              OFFSET -22.5879 0.773209 7.07136
              CHANNELS 3 Zrotation Xrotation Yrotation
              JOINT rThumb1
              {
                OFFSET -1.2192 -0.487915 3.41376
                CHANNELS 3 Zrotation Xrotation Yrotation
                JOINT rThumb2
                {
                  OFFSET -3.37035 -0.52449 3.41376
                  CHANNELS 3 Zrotation Xrotation Yrotation
                  End Site
                  {
                    OFFSET -1.78271 -1.18214 1.43049
                  }
                }
              }
              JOINT rIndex1
              {
                OFFSET -7.75947 0.938293 5.60832
                CHANNELS 3 Zrotation Xrotation Yrotation
                JOINT rIndex2
                {
                  OFFSET -2.54057 -0.884171 1.56538
                  CHANNELS 3 Zrotation Xrotation Yrotation
                  End Site
                  {
                    OFFSET -1.62519 -0.234802 1.16502
                  }
                }
              }
              JOINT rMid1
              {
                OFFSET -8.24714 1.18213 3.41376
                CHANNELS 3 Zrotation Xrotation Yrotation
                JOINT rMid2
                {
                  OFFSET -3.10165 -0.590103 1.0647
                  CHANNELS 3 Zrotation Xrotation Yrotation
                  End Site
                  {
                    OFFSET -2.48547 -0.328903 0.83742
                  }
                }
              }
              JOINT rRing1
              {
                OFFSET -8.82822 0.546677 1.51678
                CHANNELS 3 Zrotation Xrotation Yrotation
                JOINT rRing2
                {
                  OFFSET -2.60934 -0.819778 -0.0198488
                  CHANNELS 3 Zrotation Xrotation Yrotation
                  End Site
                  {
                    OFFSET -2.33842 -0.294052 0.168128
                  }
                }
              }
              JOINT rPinky1
              {
                OFFSET -8.27202 -0.0477905 -0.4584
                CHANNELS 3 Zrotation Xrotation Yrotation
                JOINT rPinky2
                {
                  OFFSET -1.82734 -0.647385 -0.700984
                  CHANNELS 3 Zrotation Xrotation Yrotation
                  End Site
                  {
                    OFFSET -1.69225 -0.51767 -0.607171
                  }
                }
              }
            }
          }
        }
      }
      JOINT lCollar
      {
        OFFSET 2.68224 19.2634 -4.8768
        CHANNELS 3 Zrotation Xrotation Yrotation
        JOINT lShldr
        {
          OFFSET 8.77824 -1.95073 1.46304
          CHANNELS 3 Zrotation Xrotation Yrotation
          JOINT lForeArm
          {
            OFFSET 28.1742 -1.7115 0.48768
            CHANNELS 3 Zrotation Xrotation Yrotation
            JOINT lHand
            {
              OFFSET 22.5879 0.773209 7.07136
              CHANNELS 3 Zrotation Xrotation Yrotation
              JOINT lThumb1
              {
                OFFSET 1.2192 -0.487915 3.41376
                CHANNELS 3 Zrotation Xrotation Yrotation
                JOINT lThumb2
                {
                  OFFSET 3.37035 -0.52449 3.41376
                  CHANNELS 3 Zrotation Xrotation Yrotation
                  End Site
                  {
                    OFFSET 1.78271 -1.18214 1.43049
                  }
                }
              }
              JOINT lIndex1
              {
                OFFSET 7.75947 0.938293 5.60832
                CHANNELS 3 Zrotation Xrotation Yrotation
                JOINT lIndex2
                {
                  OFFSET 2.54057 -0.884171 1.56538
                  CHANNELS 3 Zrotation Xrotation Yrotation
                  End Site
                  {
                    OFFSET 1.62519 -0.234802 1.16502
                  }
                }
              }
              JOINT lMid1
              {
                OFFSET 8.24714 1.18213 3.41376
                CHANNELS 3 Zrotation Xrotation Yrotation
                JOINT lMid2
                {
                  OFFSET 3.10165 -0.590103 1.0647
                  CHANNELS 3 Zrotation Xrotation Yrotation
                  End Site
                  {
                    OFFSET 2.48547 -0.328903 0.83742
                  }
                }
              }
              JOINT lRing1
              {
                OFFSET 8.82822 0.546677 1.51678
                CHANNELS 3 Zrotation Xrotation Yrotation
                JOINT lRing2
                {
                  OFFSET 2.60934 -0.819778 -0.0198488
                  CHANNELS 3 Zrotation Xrotation Yrotation
                  End Site
                  {
                    OFFSET 2.33842 -0.294052 0.168128
                  }
                }
              }
              JOINT lPinky1
              {
                OFFSET 8.27202 -0.0477905 -0.4584
                CHANNELS 3 Zrotation Xrotation Yrotation
                JOINT lPinky2
                {
                  OFFSET 1.82734 -0.647385 -0.700984
                  CHANNELS 3 Zrotation Xrotation Yrotation
                  End Site
                  {
                    OFFSET 1.69225 -0.51767 -0.607171
                  }
                }
              }
            }
          }
        }
      }
    }
  }
  JOINT rButtock
  {
    OFFSET -8.77824 4.35084 1.2192
    CHANNELS 3 Zrotation Xrotation Yrotation
    JOINT rThigh
    {
      OFFSET 0 -1.70687 -2.19456
      CHANNELS 3 Zrotation Xrotation Yrotation
      JOINT rShin
      {
        OFFSET 0 -36.8199 0.73152
        CHANNELS 3 Zrotation Xrotation Yrotation
        JOINT rFoot
        {
          OFFSET 0.73152 -45.1104 -5.12064
          CHANNELS 3 Zrotation Xrotation Yrotation
          End Site
          {
            OFFSET -1.1221 -3.69964 12.103
          }
        }
      }
    }
  }
  JOINT lButtock
  {
    OFFSET 8.77824 4.35084 1.2192
    CHANNELS 3 Zrotation Xrotation Yrotation
    JOINT lThigh
    {
      OFFSET 0 -1.70687 -2.19456
      CHANNELS 3 Zrotation Xrotation Yrotation
      JOINT lShin
      {
        OFFSET 0 -36.8199 0.73152
        CHANNELS 3 Zrotation Xrotation Yrotation
        JOINT lFoot
        {
          OFFSET -0.73152 -45.1104 -5.12064
          CHANNELS 3 Zrotation Xrotation Yrotation
          End Site
          {
            OFFSET 1.1221 -3.69964 12.103
          }
        }
      }
    }
  }
}
MOTION
Frames:	5
Frame Time:	0.03333
-19.1803 61.43730000000001 66.7689 -141.052001953125 63.341094970703125 -136.05699157714844 -0.8067751526832581 24.471200942993164 -3.7580974102020264 12.452707290649414 -10.55799674987793 0.19964706897735596 -9.922381401062012 23.40890884399414 -19.48689842224121 24.897397994995117 -25.66319465637207 -33.54340744018555 -0.0 0.0 -0.0 -0.0 0.0 -0.0 -0.0 -0.0 -0.0 51.26150131225586 19.97960090637207 -2.5618371963500977 -28.427303314208984 -35.093997955322266 75.50140380859375 -0.0008762918296270072 0.8459191918373108 0.11870376020669937 0.0 0.0 0.0 0.0 0.0 0.0 0.0 0.0 0.0 7.730902194976807 5.47491455078125 0.4173222780227661 0.0 0.0 0.0 2.905566453933716 0.9650754332542419 0.10300818830728531 0.0 0.0 0.0 10.278596878051758 0.7318810820579529 0.026273518800735474 0.0 0.0 0.0 2.221662998199463 -0.7334509491920471 -0.20832103490829468 -0.0 -0.0 -0.0 -65.80260467529297 47.678104400634766 -1.9774715900421143 28.347797393798828 -37.836700439453125 -80.118896484375 1.683531641960144 -34.02750778198242 5.450275897979736 0.0 0.0 0.0 0.0 0.0 0.0 0.0 0.0 0.0 -7.730902194976807 5.47491455078125 -0.4173222780227661 0.0 0.0 0.0 -2.905566453933716 0.9650754332542419 -0.10300818830728531 0.0 0.0 0.0 -10.278596878051758 0.7318810820579529 -0.026273518800735474 0.0 0.0 0.0 -2.221662998199463 -0.7334509491920471 0.20832103490829468 -0.0 0.0 -0.0 -34.64149856567383 -45.431793212890625 -24.022411346435547 -1.9935940504074097 73.22010040283203 4.058855056762695 2.5045666694641113 0.7182402610778809 17.51731300354004 0.0 0.0 0.0 45.24979019165039 -49.479801177978516 33.6686897277832 2.3449246883392334 74.27069091796875 -4.050768852233887 2.94936203956604 -22.82069969177246 9.501140594482422
-18.7142 60.40030000000001 67.1575 -143.28900146484375 63.07890319824219 -138.56900024414062 -0.17049632966518402 23.600688934326172 -3.8884384632110596 12.387706756591797 -10.403284072875977 0.17212599515914917 -9.916511535644531 23.530797958374023 -19.643699645996094 24.728397369384766 -25.976606369018555 -33.82609558105469 -0.0 0.0 -0.0 -0.0 0.0 -0.0 -0.0 -0.0 -0.0 51.281005859375 22.149202346801758 -1.8243992328643799 -28.43099594116211 -36.04560470581055 77.08599853515625 -0.004380009137094021 1.8901485204696655 0.2655165195465088 0.0 0.0 0.0 0.0 0.0 0.0 0.0 0.0 0.0 7.730902194976807 5.47491455078125 0.4173222780227661 0.0 0.0 0.0 2.905566453933716 0.9650754332542419 0.10300818830728531 0.0 0.0 0.0 10.278596878051758 0.7318810820579529 0.026273518800735474 0.0 0.0 0.0 2.221662998199463 -0.7334509491920471 -0.20832103490829468 -0.0 -0.0 -0.0 -68.24348449707031 47.590694427490234 1.0102695226669312 28.299198150634766 -38.33670425415039 -80.99649810791016 1.6429418325424194 -33.814964294433594 5.401387691497803 0.0 0.0 0.0 0.0 0.0 0.0 0.0 0.0 0.0 -7.730902194976807 5.47491455078125 -0.4173222780227661 0.0 0.0 0.0 -2.905566453933716 0.9650754332542419 -0.10300818830728531 0.0 0.0 0.0 -10.278596878051758 0.7318810820579529 -0.026273518800735474 0.0 0.0 0.0 -2.221662998199463 -0.7334509491920471 0.20832103490829468 -0.0 0.0 -0.0 -31.75160026550293 -43.280189514160156 -21.335006713867188 -1.5940934419631958 70.6222915649414 3.6821646690368652 1.990866780281067 2.061222553253174 18.19520378112793 0.0 0.0 0.0 45.95900344848633 -50.284000396728516 34.132904052734375 2.7824347019195557 76.08368682861328 -4.4828104972839355 3.018285036087036 -23.50388526916504 9.297821998596191
-18.0802 59.477500000000006 67.2589 -145.73500061035156 62.88500213623047 -142.16799926757812 0.5889810919761658 22.594690322875977 -4.169535160064697 12.337885856628418 -10.168295860290527 0.10024723410606384 -9.971783638000488 23.65809440612793 -19.726696014404297 24.428300857543945 -26.365493774414062 -33.99360275268555 -0.0 0.0 -0.0 -0.0 0.0 -0.0 -0.0 0.0 -0.0 51.220096588134766 24.402204513549805 -1.2522063255310059 -28.401596069335938 -36.992103576660156 78.67959594726562 -0.013568952679634094 3.3237242698669434 0.46768105030059814 -0.0 0.0 -0.0 -0.0 0.0 -0.0 -0.0 0.0 -0.0 7.730902194976807 5.47491455078125 0.4173222780227661 -0.0 0.0 -0.0 2.905566453933716 0.9650754332542419 0.10300818830728531 -0.0 0.0 -0.0 10.278596878051758 0.7318810820579529 0.026273518800735474 -0.0 0.0 -0.0 2.221662998199463 -0.7334509491920471 -0.20832103490829468 -0.0 0.0 -0.0 -70.49940490722656 47.26969528198242 3.6029133796691895 28.257097244262695 -38.728702545166016 -81.67529296875 1.4830189943313599 -32.50870132446289 5.133447170257568 -0.0 0.0 -0.0 -0.0 0.0 -0.0 -0.0 0.0 -0.0 -7.730902194976807 5.47491455078125 -0.4173222780227661 -0.0 0.0 -0.0 -2.905566453933716 0.9650754332542419 -0.10300818830728531 -0.0 0.0 -0.0 -10.278596878051758 0.7318810820579529 -0.026273518800735474 -0.0 0.0 -0.0 -2.221662998199463 -0.7334509491920471 0.20832103490829468 -0.0 0.0 -0.0 -29.355297088623047 -41.35080337524414 -19.30788803100586 -1.3288490772247314 68.4922866821289 3.45916748046875 1.3735253810882568 3.6140875816345215 18.412805557250977 0.0 0.0 0.0 46.899513244628906 -51.22300720214844 34.80860900878906 3.3499770164489746 77.88533782958984 -5.041109085083008 3.038936138153076 -24.15899658203125 9.004566192626953
-17.9828 58.1712 68.0388 -148.0229949951172 62.72910690307617 -143.1169891357422 0.8118133544921875 21.73461151123047 -4.226833820343018 12.086990356445312 -10.0549898147583 0.04745495319366455 -9.935980796813965 23.78120231628418 -19.862001419067383 24.241594314575195 -26.708412170410156 -34.23359680175781 -0.0 0.0 -0.0 -0.0 0.0 -0.0 -0.0 -0.0 -0.0 51.176998138427734 26.48819351196289 -0.8852179050445557 -28.34020233154297 -37.91599655151367 80.26148986816406 -0.020316042006015778 4.065579414367676 0.5723785758018494 -0.0 0.0 -0.0 -0.0 0.0 -0.0 -0.0 0.0 -0.0 7.730902194976807 5.47491455078125 0.4173222780227661 -0.0 0.0 -0.0 2.905566453933716 0.9650754332542419 0.10300818830728531 -0.0 0.0 -0.0 10.278596878051758 0.7318810820579529 0.026273518800735474 -0.0 0.0 -0.0 2.221662998199463 -0.7334509491920471 -0.20832103490829468 -0.0 -0.0 -0.0 -72.3073959350586 47.16679000854492 5.671638488769531 28.208398818969727 -39.11810302734375 -82.35809326171875 1.4272270202636719 -31.822729110717773 5.003626346588135 -0.0 0.0 -0.0 -0.0 0.0 -0.0 -0.0 0.0 -0.0 -7.730902194976807 5.47491455078125 -0.4173222780227661 -0.0 0.0 -0.0 -2.905566453933716 0.9650754332542419 -0.10300818830728531 -0.0 0.0 -0.0 -10.278596878051758 0.7318810820579529 -0.026273518800735474 -0.0 0.0 -0.0 -2.221662998199463 -0.7334509491920471 0.20832103490829468 -0.0 0.0 -0.0 -27.851789474487305 -39.856597900390625 -17.973773956298828 -1.248854637145996 67.42359161376953 3.2772178649902344 1.917698621749878 1.6965802907943726 16.706600189208984 0.0 0.0 0.0 47.92999267578125 -52.24967956542969 35.83290481567383 4.158378601074219 79.81652069091797 -5.866395473480225 3.011681318283081 -24.699405670166016 8.771829605102539
-17.689 56.8218 68.643 -150.20999145507812 62.77040481567383 -145.40301513671875 0.5181102752685547 21.019596099853516 -4.065976619720459 11.634503364562988 -10.063607215881348 0.013511164113879204 -9.808727264404297 23.89999771118164 -20.04989242553711 24.167404174804688 -27.00419044494629 -34.545997619628906 -0.0 0.0 -0.0 -0.0 0.0 -0.0 -0.0 -0.0 -0.0 51.180397033691406 28.40799903869629 -0.7339152693748474 -28.248289108276367 -38.82400894165039 81.83139038085938 -0.02082563191652298 4.115820407867432 0.5795673131942749 0.0 0.0 -0.0 0.0 0.0 -0.0 0.0 0.0 -0.0 7.730902194976807 5.47491455078125 0.4173222780227661 0.0 0.0 -0.0 2.905566453933716 0.9650754332542419 0.10300818830728531 0.0 0.0 -0.0 10.278596878051758 0.7318810820579529 0.026273518800735474 0.0 0.0 -0.0 2.221662998199463 -0.7334509491920471 -0.20832103490829468 -0.0 -0.0 -0.0 -73.70999908447266 47.308292388916016 7.247915267944336 28.152891159057617 -39.505104064941406 -83.04499816894531 1.4207390546798706 -31.759815216064453 4.991286754608154 -0.0 0.0 -0.0 -0.0 0.0 -0.0 -0.0 0.0 -0.0 -7.730902194976807 5.47491455078125 -0.4173222780227661 -0.0 0.0 -0.0 -2.905566453933716 0.9650754332542419 -0.10300818830728531 -0.0 0.0 -0.0 -10.278596878051758 0.7318810820579529 -0.026273518800735474 -0.0 0.0 -0.0 -2.221662998199463 -0.7334509491920471 0.20832103490829468 -0.0 0.0 -0.0 -27.12879180908203 -38.83501052856445 -17.245878219604492 -1.3210006952285767 67.41639709472656 3.1022486686706543 3.120183229446411 -3.8385956287384033 13.185691833496094 0.0 0.0 0.0 49.089298248291016 -53.349998474121094 37.24039077758789 5.438122272491455 81.87516784667969 -7.18931245803833 2.9400997161865234 -25.124801635742188 8.60046672821045
